  0
SECTION
  2
HEADER
  9
$ACADVER
  1
AC1014
  9
$HANDSEED
  5
FFFF
  9
$MEASUREMENT
 70
     1
  0
ENDSEC
  0
SECTION
  2
TABLES
  0
TABLE
  2
VPORT
  5
8
330
0
100
AcDbSymbolTable
 70
     4
  0
VPORT
  5
2E
330
8
100
AcDbSymbolTableRecord
100
AcDbViewportTableRecord
  2
*ACTIVE
 70
     0
 10
0.0
 20
0.0
 11
1.0
 21
1.0
 12
210.0
 22
148.5
 13
0.0
 23
0.0
 14
10.0
 24
10.0
 15
10.0
 25
10.0
 16
0.0
 26
0.0
 36
1.0
 17
0.0
 27
0.0
 37
0.0
 40
341.0
 41
1.24
 42
50.0
 43
0.0
 44
0.0
 50
0.0
 51
0.0
 71
     0
 72
   100
 73
     1
 74
     3
 75
     0
 76
     0
 77
     0
 78
     0
  0
ENDTAB
  0
TABLE
  2
LTYPE
  5
5
330
0
100
AcDbSymbolTable
 70
     1
  0
LTYPE
  5
14
330
5
100
AcDbSymbolTableRecord
100
AcDbLinetypeTableRecord
  2
BYBLOCK
 70
     0
  3

 72
    65
 73
     0
 40
0.0
  0
LTYPE
  5
15
330
5
100
AcDbSymbolTableRecord
100
AcDbLinetypeTableRecord
  2
BYLAYER
 70
     0
  3

 72
    65
 73
     0
 40
0.0
  0
LTYPE
  5
16
330
5
100
AcDbSymbolTableRecord
100
AcDbLinetypeTableRecord
  2
CONTINUOUS
 70
     0
  3
Solid line
 72
    65
 73
     0
 40
0.0
  0
ENDTAB
  0
TABLE
  2
LAYER
  5
2
100
AcDbSymbolTable
 70
2
  0
LAYER
  5
50
100
AcDbSymbolTableRecord
100
AcDbLayerTableRecord
  2
0
 70
0
  6
CONTINUOUS
  0
LAYER
  5
51
100
AcDbSymbolTableRecord
100
AcDbLayerTableRecord
  2
Layer_1
 70
0
  6
CONTINUOUS
  0
ENDTAB
  0
TABLE
  2
STYLE
  5
3
330
0
100
AcDbSymbolTable
 70
     1
  0
STYLE
  5
11
330
3
100
AcDbSymbolTableRecord
100
AcDbTextStyleTableRecord
  2
STANDARD
 70
     0
 40
0.0
 41
1.0
 50
0.0
 71
     0
 42
2.5
  3
txt
  4

  0
ENDTAB
  0
TABLE
  2
VIEW
  5
6
330
0
100
AcDbSymbolTable
 70
     0
  0
ENDTAB
  0
TABLE
  2
UCS
  5
7
330
0
100
AcDbSymbolTable
 70
     0
  0
ENDTAB
  0
TABLE
  2
APPID
  5
9
330
0
100
AcDbSymbolTable
 70
     2
  0
APPID
  5
12
330
9
100
AcDbSymbolTableRecord
100
AcDbRegAppTableRecord
  2
ACAD
 70
     0
  0
ENDTAB
  0
TABLE
  2
DIMSTYLE
  5
A
330
0
100
AcDbSymbolTable
 70
     1
  0
DIMSTYLE
105
27
330
A
100
AcDbSymbolTableRecord
100
AcDbDimStyleTableRecord
  2
ISO-25
 70
     0
  3

  4

  5

  6

  7

 40
1.0
 41
2.5
 42
0.625
 43
3.75
 44
1.25
 45
0.0
 46
0.0
 47
0.0
 48
0.0
140
2.5
141
2.5
142
0.0
143
0.03937007874016
144
1.0
145
0.0
146
1.0
147
0.625
 71
     0
 72
     0
 73
     0
 74
     0
 75
     0
 76
     0
 77
     1
 78
     8
170
     0
171
     3
172
     1
173
     0
174
     0
175
     0
176
     0
177
     0
178
     0
270
     2
271
     2
272
     2
273
     2
274
     3
340
11
275
     0
280
     0
281
     0
282
     0
283
     0
284
     8
285
     0
286
     0
287
     3
288
     0
  0
ENDTAB
  0
TABLE
  2
BLOCK_RECORD
  5
1
330
0
100
AcDbSymbolTable
 70
     1
  0
BLOCK_RECORD
  5
1F
330
1
100
AcDbSymbolTableRecord
100
AcDbBlockTableRecord
  2
*MODEL_SPACE
  0
BLOCK_RECORD
  5
1B
330
1
100
AcDbSymbolTableRecord
100
AcDbBlockTableRecord
  2
*PAPER_SPACE
  0
ENDTAB
  0
ENDSEC
  0
SECTION
  2
BLOCKS
  0
BLOCK
  5
20
330
1F
100
AcDbEntity
  8
0
100
AcDbBlockBegin
  2
*MODEL_SPACE
 70
     0
 10
0.0
 20
0.0
 30
0.0
  3
*MODEL_SPACE
  1

  0
ENDBLK
  5
21
330
1F
100
AcDbEntity
  8
0
100
AcDbBlockEnd
  0
BLOCK
  5
1C
330
1B
100
AcDbEntity
 67
     1
  8
0
100
AcDbBlockBegin
  2
*PAPER_SPACE
  1

  0
ENDBLK
  5
1D
330
1B
100
AcDbEntity
 67
     1
  8
0
100
AcDbBlockEnd
  0
ENDSEC
  0
SECTION
  2
ENTITIES
  0
LINE
  5
100
100
AcDbEntity
  8
Layer_1
 62
7
100
AcDbLine
 10
16.694318
 20
63.471081
 30
0.0
 11
13.527586
 21
62.776550
 31
0.0
  0
LINE
  5
101
100
AcDbEntity
  8
Layer_1
 62
7
100
AcDbLine
 10
13.527586
 20
62.776550
 30
0.0
 11
11.447898
 21
61.481150
 31
0.0
  0
LINE
  5
102
100
AcDbEntity
  8
Layer_1
 62
7
100
AcDbLine
 10
11.447898
 20
61.481150
 30
0.0
 11
9.178035
 21
59.019043
 31
0.0
  0
LINE
  5
103
100
AcDbEntity
  8
Layer_1
 62
7
100
AcDbLine
 10
9.178035
 20
59.019043
 30
0.0
 11
6.864941
 21
55.131309
 31
0.0
  0
LINE
  5
104
100
AcDbEntity
  8
Layer_1
 62
7
100
AcDbLine
 10
6.864941
 20
55.131309
 30
0.0
 11
4.655562
 21
49.559051
 31
0.0
  0
LINE
  5
105
100
AcDbEntity
  8
Layer_1
 62
7
100
AcDbLine
 10
4.655562
 20
49.559051
 30
0.0
 11
2.696841
 21
42.043350
 31
0.0
  0
LINE
  5
106
100
AcDbEntity
  8
Layer_1
 62
7
100
AcDbLine
 10
2.696841
 20
42.043350
 30
0.0
 11
1.135720
 21
32.325257
 31
0.0
  0
LINE
  5
107
100
AcDbEntity
  8
Layer_1
 62
7
100
AcDbLine
 10
1.135720
 20
32.325257
 30
0.0
 11
0.119143
 21
20.145851
 31
0.0
  0
LINE
  5
108
100
AcDbEntity
  8
Layer_1
 62
7
100
AcDbLine
 10
0.119143
 20
20.145851
 30
0.0
 11
-0.205942
 21
5.246211
 31
0.0
  0
LINE
  5
109
100
AcDbEntity
  8
Layer_1
 62
7
100
AcDbLine
 10
-0.205942
 20
5.246211
 30
0.0
 11
2.881951
 21
3.090651
 31
0.0
  0
LINE
  5
10a
100
AcDbEntity
  8
Layer_1
 62
7
100
AcDbLine
 10
2.881951
 20
3.090651
 30
0.0
 11
5.573550
 21
0.649076
 31
0.0
  0
LINE
  5
10b
100
AcDbEntity
  8
Layer_1
 62
7
100
AcDbLine
 10
5.573550
 20
0.649076
 30
0.0
 11
7.734984
 21
-1.815491
 31
0.0
  0
LINE
  5
10c
100
AcDbEntity
  8
Layer_1
 62
7
100
AcDbLine
 10
7.734984
 20
-1.815491
 30
0.0
 11
9.641519
 21
-4.452408
 31
0.0
  0
LINE
  5
10d
100
AcDbEntity
  8
Layer_1
 62
7
100
AcDbLine
 10
9.641519
 20
-4.452408
 30
0.0
 11
13.130711
 21
-0.996289
 31
0.0
  0
LINE
  5
10e
100
AcDbEntity
  8
Layer_1
 62
7
100
AcDbLine
 10
13.130711
 20
-0.996289
 30
0.0
 11
17.837019
 21
3.386720
 31
0.0
  0
LINE
  5
10f
100
AcDbEntity
  8
Layer_1
 62
7
100
AcDbLine
 10
17.837019
 20
3.386720
 30
0.0
 11
22.101740
 21
6.817175
 31
0.0
  0
LINE
  5
110
100
AcDbEntity
  8
Layer_1
 62
7
100
AcDbLine
 10
22.101740
 20
6.817175
 30
0.0
 11
30.017598
 21
12.315402
 31
0.0
  0
LINE
  5
111
100
AcDbEntity
  8
Layer_1
 62
7
100
AcDbLine
 10
30.017598
 20
12.315402
 30
0.0
 11
36.488460
 21
16.491003
 31
0.0
  0
LINE
  5
112
100
AcDbEntity
  8
Layer_1
 62
7
100
AcDbLine
 10
36.488460
 20
16.491003
 30
0.0
 11
37.356624
 21
16.962305
 31
0.0
  0
LINE
  5
113
100
AcDbEntity
  8
Layer_1
 62
7
100
AcDbLine
 10
37.356624
 20
16.962305
 30
0.0
 11
40.160377
 21
19.801284
 31
0.0
  0
LINE
  5
114
100
AcDbEntity
  8
Layer_1
 62
7
100
AcDbLine
 10
40.160377
 20
19.801284
 30
0.0
 11
42.172528
 21
22.656774
 31
0.0
  0
LINE
  5
115
100
AcDbEntity
  8
Layer_1
 62
7
100
AcDbLine
 10
42.172528
 20
22.656774
 30
0.0
 11
43.366293
 21
25.763537
 31
0.0
  0
LINE
  5
116
100
AcDbEntity
  8
Layer_1
 62
7
100
AcDbLine
 10
43.366293
 20
25.763537
 30
0.0
 11
43.714892
 21
29.356367
 31
0.0
  0
LINE
  5
117
100
AcDbEntity
  8
Layer_1
 62
7
100
AcDbLine
 10
43.714892
 20
29.356367
 30
0.0
 11
42.992003
 21
34.924153
 31
0.0
  0
LINE
  5
118
100
AcDbEntity
  8
Layer_1
 62
7
100
AcDbLine
 10
42.992003
 20
34.924153
 30
0.0
 11
41.249777
 21
40.123136
 31
0.0
  0
LINE
  5
119
100
AcDbEntity
  8
Layer_1
 62
7
100
AcDbLine
 10
41.249777
 20
40.123136
 30
0.0
 11
38.763633
 21
44.893256
 31
0.0
  0
LINE
  5
11a
100
AcDbEntity
  8
Layer_1
 62
7
100
AcDbLine
 10
38.763633
 20
44.893256
 30
0.0
 11
35.808986
 21
49.174294
 31
0.0
  0
LINE
  5
11b
100
AcDbEntity
  8
Layer_1
 62
7
100
AcDbLine
 10
35.808986
 20
49.174294
 30
0.0
 11
32.661254
 21
52.906163
 31
0.0
  0
LINE
  5
11c
100
AcDbEntity
  8
Layer_1
 62
7
100
AcDbLine
 10
32.661254
 20
52.906163
 30
0.0
 11
29.595852
 21
56.028696
 31
0.0
  0
LINE
  5
11d
100
AcDbEntity
  8
Layer_1
 62
7
100
AcDbLine
 10
29.595852
 20
56.028696
 30
0.0
 11
24.813719
 21
60.205144
 31
0.0
  0
LINE
  5
11e
100
AcDbEntity
  8
Layer_1
 62
7
100
AcDbLine
 10
24.813719
 20
60.205144
 30
0.0
 11
21.064915
 21
62.551442
 31
0.0
  0
LINE
  5
11f
100
AcDbEntity
  8
Layer_1
 62
7
100
AcDbLine
 10
21.064915
 20
62.551442
 30
0.0
 11
18.945673
 21
63.254758
 31
0.0
  0
LINE
  5
120
100
AcDbEntity
  8
Layer_1
 62
7
100
AcDbLine
 10
18.945673
 20
63.254758
 30
0.0
 11
16.694318
 21
63.471081
 31
0.0
  0
LINE
  5
121
100
AcDbEntity
  8
Layer_1
 62
7
100
AcDbLine
 10
16.694318
 20
63.471081
 30
0.0
 11
16.694318
 21
63.471081
 31
0.0
  0
LINE
  5
122
100
AcDbEntity
  8
Layer_1
 62
7
100
AcDbLine
 10
-6.340968
 20
29.645769
 30
0.0
 11
-7.458389
 21
29.183965
 31
0.0
  0
LINE
  5
123
100
AcDbEntity
  8
Layer_1
 62
7
100
AcDbLine
 10
-7.458389
 20
29.183965
 30
0.0
 11
-7.920200
 21
28.066524
 31
0.0
  0
LINE
  5
124
100
AcDbEntity
  8
Layer_1
 62
7
100
AcDbLine
 10
-7.920200
 20
28.066524
 30
0.0
 11
-7.592289
 21
27.098122
 31
0.0
  0
LINE
  5
125
100
AcDbEntity
  8
Layer_1
 62
7
100
AcDbLine
 10
-7.592289
 20
27.098122
 30
0.0
 11
-6.762648
 21
26.536915
 31
0.0
  0
LINE
  5
126
100
AcDbEntity
  8
Layer_1
 62
7
100
AcDbLine
 10
-6.762648
 20
26.536915
 30
0.0
 11
-6.825233
 21
20.512775
 31
0.0
  0
LINE
  5
127
100
AcDbEntity
  8
Layer_1
 62
7
100
AcDbLine
 10
-6.825233
 20
20.512775
 30
0.0
 11
-6.417409
 21
15.264924
 31
0.0
  0
LINE
  5
128
100
AcDbEntity
  8
Layer_1
 62
7
100
AcDbLine
 10
-6.417409
 20
15.264924
 30
0.0
 11
-5.601360
 21
10.537084
 31
0.0
  0
LINE
  5
129
100
AcDbEntity
  8
Layer_1
 62
7
100
AcDbLine
 10
-5.601360
 20
10.537084
 30
0.0
 11
-4.439276
 21
6.073034
 31
0.0
  0
LINE
  5
12a
100
AcDbEntity
  8
Layer_1
 62
7
100
AcDbLine
 10
-4.439276
 20
6.073034
 30
0.0
 11
-3.579380
 21
6.254935
 31
0.0
  0
LINE
  5
12b
100
AcDbEntity
  8
Layer_1
 62
7
100
AcDbLine
 10
-3.579380
 20
6.254935
 30
0.0
 11
-4.738051
 21
10.687579
 31
0.0
  0
LINE
  5
12c
100
AcDbEntity
  8
Layer_1
 62
7
100
AcDbLine
 10
-4.738051
 20
10.687579
 30
0.0
 11
-5.557884
 21
15.376446
 31
0.0
  0
LINE
  5
12d
100
AcDbEntity
  8
Layer_1
 62
7
100
AcDbLine
 10
-5.557884
 20
15.376446
 30
0.0
 11
-5.975507
 21
20.575058
 31
0.0
  0
LINE
  5
12e
100
AcDbEntity
  8
Layer_1
 62
7
100
AcDbLine
 10
-5.975507
 20
20.575058
 30
0.0
 11
-5.927557
 21
26.536915
 31
0.0
  0
LINE
  5
12f
100
AcDbEntity
  8
Layer_1
 62
7
100
AcDbLine
 10
-5.927557
 20
26.536915
 30
0.0
 11
-5.087672
 21
27.095424
 31
0.0
  0
LINE
  5
130
100
AcDbEntity
  8
Layer_1
 62
7
100
AcDbLine
 10
-5.087672
 20
27.095424
 30
0.0
 11
-4.753468
 21
28.066524
 31
0.0
  0
LINE
  5
131
100
AcDbEntity
  8
Layer_1
 62
7
100
AcDbLine
 10
-4.753468
 20
28.066524
 30
0.0
 11
-5.219416
 21
29.183965
 31
0.0
  0
LINE
  5
132
100
AcDbEntity
  8
Layer_1
 62
7
100
AcDbLine
 10
-5.219416
 20
29.183965
 30
0.0
 11
-6.340968
 21
29.645769
 31
0.0
  0
LINE
  5
133
100
AcDbEntity
  8
Layer_1
 62
7
100
AcDbLine
 10
-6.340968
 20
29.645769
 30
0.0
 11
-6.340968
 21
29.645769
 31
0.0
  0
LINE
  5
134
100
AcDbEntity
  8
Layer_1
 62
7
100
AcDbLine
 10
46.253239
 20
18.566342
 30
0.0
 11
41.597120
 21
17.821354
 31
0.0
  0
LINE
  5
135
100
AcDbEntity
  8
Layer_1
 62
7
100
AcDbLine
 10
41.597120
 20
17.821354
 30
0.0
 11
36.926676
 21
15.722071
 31
0.0
  0
LINE
  5
136
100
AcDbEntity
  8
Layer_1
 62
7
100
AcDbLine
 10
36.926676
 20
15.722071
 30
0.0
 11
30.526461
 21
11.587401
 31
0.0
  0
LINE
  5
137
100
AcDbEntity
  8
Layer_1
 62
7
100
AcDbLine
 10
30.526461
 20
11.587401
 30
0.0
 11
22.597834
 21
6.081316
 31
0.0
  0
LINE
  5
138
100
AcDbEntity
  8
Layer_1
 62
7
100
AcDbLine
 10
22.597834
 20
6.081316
 30
0.0
 11
18.432898
 21
2.727431
 31
0.0
  0
LINE
  5
139
100
AcDbEntity
  8
Layer_1
 62
7
100
AcDbLine
 10
18.432898
 20
2.727431
 30
0.0
 11
13.742560
 21
-1.632955
 31
0.0
  0
LINE
  5
13a
100
AcDbEntity
  8
Layer_1
 62
7
100
AcDbLine
 10
13.742560
 20
-1.632955
 30
0.0
 11
10.154149
 21
-5.188294
 31
0.0
  0
LINE
  5
13b
100
AcDbEntity
  8
Layer_1
 62
7
100
AcDbLine
 10
10.154149
 20
-5.188294
 30
0.0
 11
11.890477
 21
-7.544726
 31
0.0
  0
LINE
  5
13c
100
AcDbEntity
  8
Layer_1
 62
7
100
AcDbLine
 10
11.890477
 20
-7.544726
 30
0.0
 11
17.959357
 21
-14.233737
 31
0.0
  0
LINE
  5
13d
100
AcDbEntity
  8
Layer_1
 62
7
100
AcDbLine
 10
17.959357
 20
-14.233737
 30
0.0
 11
24.681478
 21
-18.026697
 31
0.0
  0
LINE
  5
13e
100
AcDbEntity
  8
Layer_1
 62
7
100
AcDbLine
 10
24.681478
 20
-18.026697
 30
0.0
 11
30.932210
 21
-21.145976
 31
0.0
  0
LINE
  5
13f
100
AcDbEntity
  8
Layer_1
 62
7
100
AcDbLine
 10
30.932210
 20
-21.145976
 30
0.0
 11
38.384893
 21
-23.881847
 31
0.0
  0
LINE
  5
140
100
AcDbEntity
  8
Layer_1
 62
7
100
AcDbLine
 10
38.384893
 20
-23.881847
 30
0.0
 11
41.617236
 21
-24.483245
 31
0.0
  0
LINE
  5
141
100
AcDbEntity
  8
Layer_1
 62
7
100
AcDbLine
 10
41.617236
 20
-24.483245
 30
0.0
 11
44.467301
 21
-24.494622
 31
0.0
  0
LINE
  5
142
100
AcDbEntity
  8
Layer_1
 62
7
100
AcDbLine
 10
44.467301
 20
-24.494622
 30
0.0
 11
47.688815
 21
-23.758102
 31
0.0
  0
LINE
  5
143
100
AcDbEntity
  8
Layer_1
 62
7
100
AcDbLine
 10
47.688815
 20
-23.758102
 30
0.0
 11
50.704766
 21
-22.393116
 31
0.0
  0
LINE
  5
144
100
AcDbEntity
  8
Layer_1
 62
7
100
AcDbLine
 10
50.704766
 20
-22.393116
 30
0.0
 11
53.483452
 21
-20.526507
 31
0.0
  0
LINE
  5
145
100
AcDbEntity
  8
Layer_1
 62
7
100
AcDbLine
 10
53.483452
 20
-20.526507
 30
0.0
 11
55.993210
 21
-18.285169
 31
0.0
  0
LINE
  5
146
100
AcDbEntity
  8
Layer_1
 62
7
100
AcDbLine
 10
55.993210
 20
-18.285169
 30
0.0
 11
60.067238
 21
-13.203238
 31
0.0
  0
LINE
  5
147
100
AcDbEntity
  8
Layer_1
 62
7
100
AcDbLine
 10
60.067238
 20
-13.203238
 30
0.0
 11
62.657403
 21
-8.239284
 31
0.0
  0
LINE
  5
148
100
AcDbEntity
  8
Layer_1
 62
7
100
AcDbLine
 10
62.657403
 20
-8.239284
 30
0.0
 11
63.323623
 21
-5.441103
 31
0.0
  0
LINE
  5
149
100
AcDbEntity
  8
Layer_1
 62
7
100
AcDbLine
 10
63.323623
 20
-5.441103
 30
0.0
 11
63.505339
 21
-1.774878
 31
0.0
  0
LINE
  5
14a
100
AcDbEntity
  8
Layer_1
 62
7
100
AcDbLine
 10
63.505339
 20
-1.774878
 30
0.0
 11
63.089465
 21
2.394268
 31
0.0
  0
LINE
  5
14b
100
AcDbEntity
  8
Layer_1
 62
7
100
AcDbLine
 10
63.089465
 20
2.394268
 30
0.0
 11
61.962869
 21
6.701420
 31
0.0
  0
LINE
  5
14c
100
AcDbEntity
  8
Layer_1
 62
7
100
AcDbLine
 10
61.962869
 20
6.701420
 30
0.0
 11
60.031463
 21
10.788359
 31
0.0
  0
LINE
  5
14d
100
AcDbEntity
  8
Layer_1
 62
7
100
AcDbLine
 10
60.031463
 20
10.788359
 30
0.0
 11
57.202750
 21
14.322504
 31
0.0
  0
LINE
  5
14e
100
AcDbEntity
  8
Layer_1
 62
7
100
AcDbLine
 10
57.202750
 20
14.322504
 30
0.0
 11
53.366212
 21
16.977201
 31
0.0
  0
LINE
  5
14f
100
AcDbEntity
  8
Layer_1
 62
7
100
AcDbLine
 10
53.366212
 20
16.977201
 30
0.0
 11
51.035445
 21
17.872657
 31
0.0
  0
LINE
  5
150
100
AcDbEntity
  8
Layer_1
 62
7
100
AcDbLine
 10
51.035445
 20
17.872657
 30
0.0
 11
48.411244
 21
18.425769
 31
0.0
  0
LINE
  5
151
100
AcDbEntity
  8
Layer_1
 62
7
100
AcDbLine
 10
48.411244
 20
18.425769
 30
0.0
 11
46.898158
 21
18.558060
 31
0.0
  0
LINE
  5
152
100
AcDbEntity
  8
Layer_1
 62
7
100
AcDbLine
 10
46.898158
 20
18.558060
 30
0.0
 11
46.253236
 21
18.566262
 31
0.0
  0
LINE
  5
153
100
AcDbEntity
  8
Layer_1
 62
7
100
AcDbLine
 10
46.253236
 20
18.566262
 30
0.0
 11
46.253236
 21
18.566262
 31
0.0
  0
LINE
  5
154
100
AcDbEntity
  8
Layer_1
 62
7
100
AcDbLine
 10
-27.995462
 20
7.991184
 30
0.0
 11
-29.112882
 21
7.529380
 31
0.0
  0
LINE
  5
155
100
AcDbEntity
  8
Layer_1
 62
7
100
AcDbLine
 10
-29.112882
 20
7.529380
 30
0.0
 11
-29.574694
 21
6.411965
 31
0.0
  0
LINE
  5
156
100
AcDbEntity
  8
Layer_1
 62
7
100
AcDbLine
 10
-29.574694
 20
6.411965
 30
0.0
 11
-29.112882
 21
5.290397
 31
0.0
  0
LINE
  5
157
100
AcDbEntity
  8
Layer_1
 62
7
100
AcDbLine
 10
-29.112882
 20
5.290397
 30
0.0
 11
-27.995462
 21
4.824465
 31
0.0
  0
LINE
  5
158
100
AcDbEntity
  8
Layer_1
 62
7
100
AcDbLine
 10
-27.995462
 20
4.824465
 30
0.0
 11
-27.024351
 21
5.158661
 31
0.0
  0
LINE
  5
159
100
AcDbEntity
  8
Layer_1
 62
7
100
AcDbLine
 10
-27.024351
 20
5.158661
 30
0.0
 11
-26.465840
 21
5.998554
 31
0.0
  0
LINE
  5
15a
100
AcDbEntity
  8
Layer_1
 62
7
100
AcDbLine
 10
-26.465840
 20
5.998554
 30
0.0
 11
-20.509231
 21
6.047211
 31
0.0
  0
LINE
  5
15b
100
AcDbEntity
  8
Layer_1
 62
7
100
AcDbLine
 10
-20.509231
 20
6.047211
 30
0.0
 11
-15.314616
 21
5.631736
 31
0.0
  0
LINE
  5
15c
100
AcDbEntity
  8
Layer_1
 62
7
100
AcDbLine
 10
-15.314616
 20
5.631736
 30
0.0
 11
-10.629256
 21
4.814702
 31
0.0
  0
LINE
  5
15d
100
AcDbEntity
  8
Layer_1
 62
7
100
AcDbLine
 10
-10.629256
 20
4.814702
 30
0.0
 11
-6.200409
 21
3.658632
 31
0.0
  0
LINE
  5
15e
100
AcDbEntity
  8
Layer_1
 62
7
100
AcDbLine
 10
-6.200409
 20
3.658632
 30
0.0
 11
-6.109458
 21
4.212616
 31
0.0
  0
LINE
  5
15f
100
AcDbEntity
  8
Layer_1
 62
7
100
AcDbLine
 10
-6.109458
 20
4.212616
 30
0.0
 11
-6.010239
 21
4.510273
 31
0.0
  0
LINE
  5
160
100
AcDbEntity
  8
Layer_1
 62
7
100
AcDbLine
 10
-6.010239
 20
4.510273
 30
0.0
 11
-10.472450
 21
5.671846
 31
0.0
  0
LINE
  5
161
100
AcDbEntity
  8
Layer_1
 62
7
100
AcDbLine
 10
-10.472450
 20
5.671846
 30
0.0
 11
-15.198388
 21
6.487901
 31
0.0
  0
LINE
  5
162
100
AcDbEntity
  8
Layer_1
 62
7
100
AcDbLine
 10
-15.198388
 20
6.487901
 30
0.0
 11
-20.444149
 21
6.895994
 31
0.0
  0
LINE
  5
163
100
AcDbEntity
  8
Layer_1
 62
7
100
AcDbLine
 10
-20.444149
 20
6.895994
 30
0.0
 11
-26.465840
 21
6.833632
 31
0.0
  0
LINE
  5
164
100
AcDbEntity
  8
Layer_1
 62
7
100
AcDbLine
 10
-26.465840
 20
6.833632
 30
0.0
 11
-27.027058
 21
7.663286
 31
0.0
  0
LINE
  5
165
100
AcDbEntity
  8
Layer_1
 62
7
100
AcDbLine
 10
-27.027058
 20
7.663286
 30
0.0
 11
-27.995462
 21
7.991184
 31
0.0
  0
LINE
  5
166
100
AcDbEntity
  8
Layer_1
 62
7
100
AcDbLine
 10
-27.995462
 20
7.991184
 30
0.0
 11
-27.995462
 21
7.991184
 31
0.0
  0
LINE
  5
167
100
AcDbEntity
  8
Layer_1
 62
7
100
AcDbLine
 10
-3.380942
 20
5.378424
 30
0.0
 11
-4.637713
 21
4.981549
 31
0.0
  0
LINE
  5
168
100
AcDbEntity
  8
Layer_1
 62
7
100
AcDbLine
 10
-4.637713
 20
4.981549
 30
0.0
 11
-5.257830
 21
3.981106
 31
0.0
  0
LINE
  5
169
100
AcDbEntity
  8
Layer_1
 62
7
100
AcDbLine
 10
-5.257830
 20
3.981106
 30
0.0
 11
-5.312795
 21
3.007519
 31
0.0
  0
LINE
  5
16a
100
AcDbEntity
  8
Layer_1
 62
7
100
AcDbLine
 10
-5.312795
 20
3.007519
 30
0.0
 11
-4.803078
 21
1.723866
 31
0.0
  0
LINE
  5
16b
100
AcDbEntity
  8
Layer_1
 62
7
100
AcDbLine
 10
-4.803078
 20
1.723866
 30
0.0
 11
-2.647586
 21
-1.286140
 31
0.0
  0
LINE
  5
16c
100
AcDbEntity
  8
Layer_1
 62
7
100
AcDbLine
 10
-2.647586
 20
-1.286140
 30
0.0
 11
-0.312038
 21
-3.842147
 31
0.0
  0
LINE
  5
16d
100
AcDbEntity
  8
Layer_1
 62
7
100
AcDbLine
 10
-0.312038
 20
-3.842147
 30
0.0
 11
4.738459
 21
-8.247618
 31
0.0
  0
LINE
  5
16e
100
AcDbEntity
  8
Layer_1
 62
7
100
AcDbLine
 10
4.738459
 20
-8.247618
 30
0.0
 11
5.424722
 21
-8.809858
 31
0.0
  0
LINE
  5
16f
100
AcDbEntity
  8
Layer_1
 62
7
100
AcDbLine
 10
5.424722
 20
-8.809858
 30
0.0
 11
8.616258
 21
-11.505300
 31
0.0
  0
LINE
  5
170
100
AcDbEntity
  8
Layer_1
 62
7
100
AcDbLine
 10
8.616258
 20
-11.505300
 30
0.0
 11
12.394839
 21
-14.961420
 31
0.0
  0
LINE
  5
171
100
AcDbEntity
  8
Layer_1
 62
7
100
AcDbLine
 10
12.394839
 20
-14.961420
 30
0.0
 11
14.908381
 21
-17.276524
 31
0.0
  0
LINE
  5
172
100
AcDbEntity
  8
Layer_1
 62
7
100
AcDbLine
 10
14.908381
 20
-17.276524
 30
0.0
 11
18.753107
 21
-20.740873
 31
0.0
  0
LINE
  5
173
100
AcDbEntity
  8
Layer_1
 62
7
100
AcDbLine
 10
18.753107
 20
-20.740873
 30
0.0
 11
23.416388
 21
-24.494649
 31
0.0
  0
LINE
  5
174
100
AcDbEntity
  8
Layer_1
 62
7
100
AcDbLine
 10
23.416388
 20
-24.494649
 30
0.0
 11
25.979539
 21
-25.850638
 31
0.0
  0
LINE
  5
175
100
AcDbEntity
  8
Layer_1
 62
7
100
AcDbLine
 10
25.979539
 20
-25.850638
 30
0.0
 11
24.697964
 21
-23.221341
 31
0.0
  0
LINE
  5
176
100
AcDbEntity
  8
Layer_1
 62
7
100
AcDbLine
 10
24.697964
 20
-23.221341
 30
0.0
 11
20.745750
 21
-18.475378
 31
0.0
  0
LINE
  5
177
100
AcDbEntity
  8
Layer_1
 62
7
100
AcDbLine
 10
20.745750
 20
-18.475378
 30
0.0
 11
17.413654
 21
-14.944884
 31
0.0
  0
LINE
  5
178
100
AcDbEntity
  8
Layer_1
 62
7
100
AcDbLine
 10
17.413654
 20
-14.944884
 30
0.0
 11
15.189500
 21
-12.596707
 31
0.0
  0
LINE
  5
179
100
AcDbEntity
  8
Layer_1
 62
7
100
AcDbLine
 10
15.189500
 20
-12.596707
 30
0.0
 11
11.204214
 21
-8.090482
 31
0.0
  0
LINE
  5
17a
100
AcDbEntity
  8
Layer_1
 62
7
100
AcDbLine
 10
11.204214
 20
-8.090482
 30
0.0
 11
9.525763
 21
-5.824987
 31
0.0
  0
LINE
  5
17b
100
AcDbEntity
  8
Layer_1
 62
7
100
AcDbLine
 10
9.525763
 20
-5.824987
 30
0.0
 11
9.004865
 21
-5.089155
 31
0.0
  0
LINE
  5
17c
100
AcDbEntity
  8
Layer_1
 62
7
100
AcDbLine
 10
9.004865
 20
-5.089155
 30
0.0
 11
7.077976
 21
-2.417551
 31
0.0
  0
LINE
  5
17d
100
AcDbEntity
  8
Layer_1
 62
7
100
AcDbLine
 10
7.077976
 20
-2.417551
 30
0.0
 11
4.953433
 21
0.020611
 31
0.0
  0
LINE
  5
17e
100
AcDbEntity
  8
Layer_1
 62
7
100
AcDbLine
 10
4.953433
 20
0.020611
 30
0.0
 11
1.663373
 21
2.920947
 31
0.0
  0
LINE
  5
17f
100
AcDbEntity
  8
Layer_1
 62
7
100
AcDbLine
 10
1.663373
 20
2.920947
 30
0.0
 11
-1.991880
 21
5.122148
 31
0.0
  0
LINE
  5
180
100
AcDbEntity
  8
Layer_1
 62
7
100
AcDbLine
 10
-1.991880
 20
5.122148
 30
0.0
 11
-3.380942
 21
5.378424
 31
0.0
  0
LINE
  5
181
100
AcDbEntity
  8
Layer_1
 62
7
100
AcDbLine
 10
-3.380942
 20
5.378424
 30
0.0
 11
-3.380942
 21
5.378424
 31
0.0
  0
LINE
  5
182
100
AcDbEntity
  8
Layer_1
 62
7
100
AcDbLine
 10
-5.026320
 20
0.434022
 30
0.0
 11
-20.340178
 21
0.051726
 31
0.0
  0
LINE
  5
183
100
AcDbEntity
  8
Layer_1
 62
7
100
AcDbLine
 10
-20.340178
 20
0.051726
 30
0.0
 11
-32.784897
 21
-1.023805
 31
0.0
  0
LINE
  5
184
100
AcDbEntity
  8
Layer_1
 62
7
100
AcDbLine
 10
-32.784897
 20
-1.023805
 30
0.0
 11
-42.643092
 21
-2.664751
 31
0.0
  0
LINE
  5
185
100
AcDbEntity
  8
Layer_1
 62
7
100
AcDbLine
 10
-42.643092
 20
-2.664751
 30
0.0
 11
-50.197385
 21
-4.743344
 31
0.0
  0
LINE
  5
186
100
AcDbEntity
  8
Layer_1
 62
7
100
AcDbLine
 10
-50.197385
 20
-4.743344
 30
0.0
 11
-55.730397
 21
-7.131817
 31
0.0
  0
LINE
  5
187
100
AcDbEntity
  8
Layer_1
 62
7
100
AcDbLine
 10
-55.730397
 20
-7.131817
 30
0.0
 11
-59.524749
 21
-9.702377
 31
0.0
  0
LINE
  5
188
100
AcDbEntity
  8
Layer_1
 62
7
100
AcDbLine
 10
-59.524749
 20
-9.702377
 30
0.0
 11
-61.863060
 21
-12.327281
 31
0.0
  0
LINE
  5
189
100
AcDbEntity
  8
Layer_1
 62
7
100
AcDbLine
 10
-61.863060
 20
-12.327281
 30
0.0
 11
-63.027949
 21
-14.878738
 31
0.0
  0
LINE
  5
18a
100
AcDbEntity
  8
Layer_1
 62
7
100
AcDbLine
 10
-63.027949
 20
-14.878738
 30
0.0
 11
-63.240756
 21
-17.709065
 31
0.0
  0
LINE
  5
18b
100
AcDbEntity
  8
Layer_1
 62
7
100
AcDbLine
 10
-63.240756
 20
-17.709065
 30
0.0
 11
-62.636757
 21
-20.001627
 31
0.0
  0
LINE
  5
18c
100
AcDbEntity
  8
Layer_1
 62
7
100
AcDbLine
 10
-62.636757
 20
-20.001627
 30
0.0
 11
-61.407376
 21
-22.121707
 31
0.0
  0
LINE
  5
18d
100
AcDbEntity
  8
Layer_1
 62
7
100
AcDbLine
 10
-61.407376
 20
-22.121707
 30
0.0
 11
-56.911610
 21
-28.055676
 31
0.0
  0
LINE
  5
18e
100
AcDbEntity
  8
Layer_1
 62
7
100
AcDbLine
 10
-56.911610
 20
-28.055676
 30
0.0
 11
-53.464629
 21
-31.560955
 31
0.0
  0
LINE
  5
18f
100
AcDbEntity
  8
Layer_1
 62
7
100
AcDbLine
 10
-53.464629
 20
-31.560955
 30
0.0
 11
-49.361386
 21
-35.060943
 31
0.0
  0
LINE
  5
190
100
AcDbEntity
  8
Layer_1
 62
7
100
AcDbLine
 10
-49.361386
 20
-35.060943
 30
0.0
 11
-44.709236
 21
-38.282457
 31
0.0
  0
LINE
  5
191
100
AcDbEntity
  8
Layer_1
 62
7
100
AcDbLine
 10
-44.709236
 20
-38.282457
 30
0.0
 11
-39.615536
 21
-40.952314
 31
0.0
  0
LINE
  5
192
100
AcDbEntity
  8
Layer_1
 62
7
100
AcDbLine
 10
-39.615536
 20
-40.952314
 30
0.0
 11
-34.187638
 21
-42.797439
 31
0.0
  0
LINE
  5
193
100
AcDbEntity
  8
Layer_1
 62
7
100
AcDbLine
 10
-34.187638
 20
-42.797439
 30
0.0
 11
-28.532897
 21
-43.544649
 31
0.0
  0
LINE
  5
194
100
AcDbEntity
  8
Layer_1
 62
7
100
AcDbLine
 10
-28.532897
 20
-43.544649
 30
0.0
 11
-25.101623
 21
-43.223392
 31
0.0
  0
LINE
  5
195
100
AcDbEntity
  8
Layer_1
 62
7
100
AcDbLine
 10
-25.101623
 20
-43.223392
 30
0.0
 11
-22.121584
 21
-42.135901
 31
0.0
  0
LINE
  5
196
100
AcDbEntity
  8
Layer_1
 62
7
100
AcDbLine
 10
-22.121584
 20
-42.135901
 30
0.0
 11
-19.391306
 21
-40.305858
 31
0.0
  0
LINE
  5
197
100
AcDbEntity
  8
Layer_1
 62
7
100
AcDbLine
 10
-19.391306
 20
-40.305858
 30
0.0
 11
-16.709328
 21
-37.756888
 31
0.0
  0
LINE
  5
198
100
AcDbEntity
  8
Layer_1
 62
7
100
AcDbLine
 10
-16.709328
 20
-37.756888
 30
0.0
 11
-16.312453
 21
-36.954883
 31
0.0
  0
LINE
  5
199
100
AcDbEntity
  8
Layer_1
 62
7
100
AcDbLine
 10
-16.312453
 20
-36.954883
 30
0.0
 11
-12.336937
 21
-30.165887
 31
0.0
  0
LINE
  5
19a
100
AcDbEntity
  8
Layer_1
 62
7
100
AcDbLine
 10
-12.336937
 20
-30.165887
 30
0.0
 11
-7.076841
 21
-21.997644
 31
0.0
  0
LINE
  5
19b
100
AcDbEntity
  8
Layer_1
 62
7
100
AcDbLine
 10
-7.076841
 20
-21.997644
 30
0.0
 11
-3.771960
 21
-17.635246
 31
0.0
  0
LINE
  5
19c
100
AcDbEntity
  8
Layer_1
 62
7
100
AcDbLine
 10
-3.771960
 20
-17.635246
 30
0.0
 11
0.472052
 21
-12.803373
 31
0.0
  0
LINE
  5
19d
100
AcDbEntity
  8
Layer_1
 62
7
100
AcDbLine
 10
0.472052
 20
-12.803373
 30
0.0
 11
4.118341
 21
-8.892514
 31
0.0
  0
LINE
  5
19e
100
AcDbEntity
  8
Layer_1
 62
7
100
AcDbLine
 10
4.118341
 20
-8.892514
 30
0.0
 11
-0.665833
 21
-4.742365
 31
0.0
  0
LINE
  5
19f
100
AcDbEntity
  8
Layer_1
 62
7
100
AcDbLine
 10
-0.665833
 20
-4.742365
 30
0.0
 11
-2.918530
 21
-2.348362
 31
0.0
  0
LINE
  5
1a0
100
AcDbEntity
  8
Layer_1
 62
7
100
AcDbLine
 10
-2.918530
 20
-2.348362
 30
0.0
 11
-5.026320
 21
0.434049
 31
0.0
  0
LINE
  5
1a1
100
AcDbEntity
  8
Layer_1
 62
7
100
AcDbLine
 10
-5.026320
 20
0.434049
 30
0.0
 11
-5.026320
 21
0.434049
 31
0.0
  0
LINE
  5
1a2
100
AcDbEntity
  8
Layer_1
 62
7
100
AcDbLine
 10
4.804604
 20
-9.454753
 30
0.0
 11
1.125242
 21
-13.398685
 31
0.0
  0
LINE
  5
1a3
100
AcDbEntity
  8
Layer_1
 62
7
100
AcDbLine
 10
1.125242
 20
-13.398685
 30
0.0
 11
-3.099018
 21
-18.211218
 31
0.0
  0
LINE
  5
1a4
100
AcDbEntity
  8
Layer_1
 62
7
100
AcDbLine
 10
-3.099018
 20
-18.211218
 30
0.0
 11
-6.332700
 21
-22.468946
 31
0.0
  0
LINE
  5
1a5
100
AcDbEntity
  8
Layer_1
 62
7
100
AcDbLine
 10
-6.332700
 20
-22.468946
 30
0.0
 11
-11.593310
 21
-30.644386
 31
0.0
  0
LINE
  5
1a6
100
AcDbEntity
  8
Layer_1
 62
7
100
AcDbLine
 10
-11.593310
 20
-30.644386
 30
0.0
 11
-15.526971
 21
-37.360013
 31
0.0
  0
LINE
  5
1a7
100
AcDbEntity
  8
Layer_1
 62
7
100
AcDbLine
 10
-15.526971
 20
-37.360013
 30
0.0
 11
-16.872877
 21
-40.381264
 31
0.0
  0
LINE
  5
1a8
100
AcDbEntity
  8
Layer_1
 62
7
100
AcDbLine
 10
-16.872877
 20
-40.381264
 30
0.0
 11
-17.744478
 21
-43.297025
 31
0.0
  0
LINE
  5
1a9
100
AcDbEntity
  8
Layer_1
 62
7
100
AcDbLine
 10
-17.744478
 20
-43.297025
 30
0.0
 11
-18.098504
 21
-46.206331
 31
0.0
  0
LINE
  5
1aa
100
AcDbEntity
  8
Layer_1
 62
7
100
AcDbLine
 10
-18.098504
 20
-46.206331
 30
0.0
 11
-17.891685
 21
-49.208399
 31
0.0
  0
LINE
  5
1ab
100
AcDbEntity
  8
Layer_1
 62
7
100
AcDbLine
 10
-17.891685
 20
-49.208399
 30
0.0
 11
-17.256698
 21
-51.804914
 31
0.0
  0
LINE
  5
1ac
100
AcDbEntity
  8
Layer_1
 62
7
100
AcDbLine
 10
-17.256698
 20
-51.804914
 30
0.0
 11
-16.279258
 21
-54.083797
 31
0.0
  0
LINE
  5
1ad
100
AcDbEntity
  8
Layer_1
 62
7
100
AcDbLine
 10
-16.279258
 20
-54.083797
 30
0.0
 11
-13.467753
 21
-57.759044
 31
0.0
  0
LINE
  5
1ae
100
AcDbEntity
  8
Layer_1
 62
7
100
AcDbLine
 10
-13.467753
 20
-57.759044
 30
0.0
 11
-9.798633
 21
-60.375297
 31
0.0
  0
LINE
  5
1af
100
AcDbEntity
  8
Layer_1
 62
7
100
AcDbLine
 10
-9.798633
 20
-60.375297
 30
0.0
 11
-5.613364
 21
-62.073737
 31
0.0
  0
LINE
  5
1b0
100
AcDbEntity
  8
Layer_1
 62
7
100
AcDbLine
 10
-5.613364
 20
-62.073737
 30
0.0
 11
-1.259050
 21
-62.975834
 31
0.0
  0
LINE
  5
1b1
100
AcDbEntity
  8
Layer_1
 62
7
100
AcDbLine
 10
-1.259050
 20
-62.975834
 30
0.0
 11
2.887494
 21
-63.206498
 31
0.0
  0
LINE
  5
1b2
100
AcDbEntity
  8
Layer_1
 62
7
100
AcDbLine
 10
2.887494
 20
-63.206498
 30
0.0
 11
6.440232
 21
-62.912122
 31
0.0
  0
LINE
  5
1b3
100
AcDbEntity
  8
Layer_1
 62
7
100
AcDbLine
 10
6.440232
 20
-62.912122
 30
0.0
 11
9.013133
 21
-62.239102
 31
0.0
  0
LINE
  5
1b4
100
AcDbEntity
  8
Layer_1
 62
7
100
AcDbLine
 10
9.013133
 20
-62.239102
 30
0.0
 11
13.848100
 21
-59.619065
 31
0.0
  0
LINE
  5
1b5
100
AcDbEntity
  8
Layer_1
 62
7
100
AcDbLine
 10
13.848100
 20
-59.619065
 30
0.0
 11
18.744839
 21
-55.599727
 31
0.0
  0
LINE
  5
1b6
100
AcDbEntity
  8
Layer_1
 62
7
100
AcDbLine
 10
18.744839
 20
-55.599727
 30
0.0
 11
20.889480
 21
-53.129815
 31
0.0
  0
LINE
  5
1b7
100
AcDbEntity
  8
Layer_1
 62
7
100
AcDbLine
 10
20.889480
 20
-53.129815
 30
0.0
 11
22.663760
 21
-50.388388
 31
0.0
  0
LINE
  5
1b8
100
AcDbEntity
  8
Layer_1
 62
7
100
AcDbLine
 10
22.663760
 20
-50.388388
 30
0.0
 11
23.946193
 21
-47.398040
 31
0.0
  0
LINE
  5
1b9
100
AcDbEntity
  8
Layer_1
 62
7
100
AcDbLine
 10
23.946193
 20
-47.398040
 30
0.0
 11
24.615282
 21
-44.181316
 31
0.0
  0
LINE
  5
1ba
100
AcDbEntity
  8
Layer_1
 62
7
100
AcDbLine
 10
24.615282
 20
-44.181316
 30
0.0
 11
24.625256
 21
-41.467643
 31
0.0
  0
LINE
  5
1bb
100
AcDbEntity
  8
Layer_1
 62
7
100
AcDbLine
 10
24.625256
 20
-41.467643
 30
0.0
 11
24.175872
 21
-38.568365
 31
0.0
  0
LINE
  5
1bc
100
AcDbEntity
  8
Layer_1
 62
7
100
AcDbLine
 10
24.175872
 20
-38.568365
 30
0.0
 11
22.066712
 21
-32.250195
 31
0.0
  0
LINE
  5
1bd
100
AcDbEntity
  8
Layer_1
 62
7
100
AcDbLine
 10
22.066712
 20
-32.250195
 30
0.0
 11
18.623205
 21
-25.301628
 31
0.0
  0
LINE
  5
1be
100
AcDbEntity
  8
Layer_1
 62
7
100
AcDbLine
 10
18.623205
 20
-25.301628
 30
0.0
 11
14.180768
 21
-17.797383
 31
0.0
  0
LINE
  5
1bf
100
AcDbEntity
  8
Layer_1
 62
7
100
AcDbLine
 10
14.180768
 20
-17.797383
 30
0.0
 11
8.029206
 21
-12.166732
 31
0.0
  0
LINE
  5
1c0
100
AcDbEntity
  8
Layer_1
 62
7
100
AcDbLine
 10
8.029206
 20
-12.166732
 30
0.0
 11
4.804597
 21
-9.454753
 31
0.0
  0
LINE
  5
1c1
100
AcDbEntity
  8
Layer_1
 62
7
100
AcDbLine
 10
4.804597
 20
-9.454753
 30
0.0
 11
4.804597
 21
-9.454753
 31
0.0
  0
ENDSEC
  0
SECTION
  2
OBJECTS
  0
DICTIONARY
  5
C
330
0
100
AcDbDictionary
  3
ACAD_GROUP
350
D
  3
ACAD_MLINESTYLE
350
17
  0
DICTIONARY
  5
D
330
C
100
AcDbDictionary
  0
DICTIONARY
  5
1A
330
C
100
AcDbDictionary
  0
DICTIONARY
  5
17
330
C
100
AcDbDictionary
  3
STANDARD
350
18
  0
DICTIONARY
  5
19
330
C
100
AcDbDictionary
  0
ENDSEC
  0
EOF
